<svg width="110" height="34" viewBox="0 0 110 34" fill="none" xmlns="http://www.w3.org/2000/svg">
<path d="M31.2037 10.317H24.9996C23.324 7.14695 20.3352 5.56195 16.5764 5.56195C10.327 5.56195 5.79843 9.99995 5.79843 16.9287C5.79843 23.8574 10.327 28.3407 16.5764 28.3407C22.2824 28.3407 25.86 24.899 26.6299 19.6005H14.8103V15.4795H32.1547V19.51C31.2037 26.801 25.0449 33.0051 16.5764 33.0051C7.70043 33.0051 0.5 26.3934 0.5 16.9319C0.5 7.51247 7.70043 0.855471 16.5764 0.855471C23.1429 0.852236 28.8036 4.15809 31.2037 10.317Z" fill="#EF4B4B"/>
<path d="M48.9563 33.1426C41.8011 33.1426 36.5027 28.0706 36.5027 20.2361C36.5027 12.4017 41.5747 7.375 48.9563 7.375C56.0661 7.375 61.0928 12.3111 61.0928 19.6474C61.0928 20.5079 61.0476 21.323 60.9117 22.1834H41.8464C42.2087 26.3044 45.1523 28.7952 48.9563 28.7952C52.1263 28.7952 53.8924 27.2554 54.8434 25.3081H60.4136C59.0097 29.6588 55.0698 33.1426 48.9563 33.1426ZM41.8917 18.0171H55.7038C55.6133 14.1679 52.5791 11.7224 48.7298 11.7224C45.2428 11.7224 42.4351 14.0773 41.8917 18.0171Z" fill="#EF4B4B"/>
<path d="M76.2181 7.375C80.4297 7.375 83.328 9.36757 84.8677 11.4054V7.78257H90.0756V32.735H84.8677V29.0216C83.2827 31.15 80.2939 33.1426 76.1276 33.1426C69.6517 33.1426 64.4438 27.8441 64.4438 20.1456C64.4438 12.447 69.6517 7.375 76.2181 7.375ZM77.305 11.8551C73.4557 11.8551 69.7423 14.7533 69.7423 20.1423C69.7423 25.5313 73.4557 28.6561 77.305 28.6561C81.1996 28.6561 84.8677 25.6219 84.8677 20.2329C84.8677 14.8892 81.1996 11.8551 77.305 11.8551Z" fill="#EF4B4B"/>
<path d="M102.028 32.735H96.8652V7.78257H102.028V11.4054C103.477 8.91472 105.968 7.375 109.5 7.375V12.7187H108.187C104.383 12.7187 102.028 14.3037 102.028 19.6021V32.735Z" fill="#EF4B4B"/>
</svg>
