<svg width="109" height="33" viewBox="0 0 109 33" fill="none" xmlns="http://www.w3.org/2000/svg">
<path d="M30.7037 9.46148H24.4996C22.824 6.29148 19.8352 4.70648 16.0764 4.70648C9.827 4.70648 5.29843 9.14449 5.29843 16.0732C5.29843 23.0019 9.827 27.4852 16.0764 27.4852C21.7824 27.4852 25.36 24.0435 26.1299 18.7451H14.3103V14.6241H31.6547V18.6545C30.7037 25.9455 24.5449 32.1496 16.0764 32.1496C7.20043 32.1496 0 25.5379 0 16.0764C0 6.657 7.20043 2.37153e-06 16.0764 2.37153e-06C22.6429 -0.00323232 28.3036 3.30263 30.7037 9.46148Z" fill="white"/>
<path d="M48.4563 32.2832C41.3011 32.2832 36.0027 27.2112 36.0027 19.3768C36.0027 11.5423 41.0747 6.51562 48.4563 6.51562C55.5661 6.51562 60.5928 11.4518 60.5928 18.7881C60.5928 19.6485 60.5476 20.4636 60.4117 21.3241H41.3464C41.7087 25.4451 44.6523 27.9358 48.4563 27.9358C51.6263 27.9358 53.3924 26.3961 54.3434 24.4488H59.9136C58.5097 28.7994 54.5698 32.2832 48.4563 32.2832ZM41.3917 17.1578H55.2038C55.1133 13.3085 52.0791 10.8631 48.2298 10.8631C44.7428 10.8631 41.9351 13.2179 41.3917 17.1578Z" fill="white"/>
<path d="M75.7181 6.52344C79.9297 6.52344 82.828 8.51601 84.3677 10.5539V6.93101H89.5756V31.8834H84.3677V28.17C82.7827 30.2984 79.7939 32.291 75.6276 32.291C69.1517 32.291 63.9438 26.9926 63.9438 19.294C63.9438 11.5954 69.1517 6.52344 75.7181 6.52344ZM76.805 11.0035C72.9557 11.0035 69.2423 13.9018 69.2423 19.2908C69.2423 24.6798 72.9557 27.8045 76.805 27.8045C80.6996 27.8045 84.3677 24.7703 84.3677 19.3813C84.3677 14.0376 80.6996 11.0035 76.805 11.0035Z" fill="white"/>
<path d="M101.528 31.8756H96.3652V6.9232H101.528V10.5461C102.977 8.05534 105.468 6.51562 109 6.51562V11.8593H107.687C103.883 11.8593 101.528 13.4443 101.528 18.7428V31.8756Z" fill="white"/>
</svg>
